<mxfile host="app.diagrams.net" modified="2025-08-28T00:00:00.000Z" agent="5.0" etag="deployment" version="24.7.6" type="device">
  <diagram name="Deployment Diagram" id="deployment">
    <mxGraphModel dx="1422" dy="754" grid="1" gridSize="10" guides="1" tooltips="1" connect="1" arrows="1" fold="1" page="1" pageScale="1" pageWidth="1169" pageHeight="827" math="0" shadow="0">
      <root>
        <mxCell id="0" />
        <mxCell id="1" parent="0" />
        
        <!-- Client Layer -->
        <mxCell id="client-layer" value="Client Layer" style="rounded=1;whiteSpace=wrap;html=1;fillColor=#dae8fc;strokeColor=#6c8ebf;fontSize=14;fontStyle=1" vertex="1" parent="1">
          <mxGeometry x="80" y="40" width="960" height="40" as="geometry" />
        </mxCell>
        
        <!-- Web Browser -->
        <mxCell id="web-browser" value="Web Browser&#xa;• Chrome/Firefox/Safari&#xa;• JavaScript Enabled&#xa;• Modern Browser Support" style="rounded=1;whiteSpace=wrap;html=1;fillColor=#e1d5e7;strokeColor=#9673a6;" vertex="1" parent="1">
          <mxGeometry x="200" y="120" width="200" height="80" as="geometry" />
        </mxCell>
        
        <!-- Mobile Browser -->
        <mxCell id="mobile-browser" value="Mobile Browser&#xa;• Responsive Design&#xa;• Touch Interface&#xa;• Mobile Optimized" style="rounded=1;whiteSpace=wrap;html=1;fillColor=#ffe6cc;strokeColor=#d79b00;" vertex="1" parent="1">
          <mxGeometry x="600" y="120" width="200" height="80" as="geometry" />
        </mxCell>
        
        <!-- Application Layer -->
        <mxCell id="app-layer" value="Application Layer (Vercel/Cloud Platform)" style="rounded=1;whiteSpace=wrap;html=1;fillColor=#fff2cc;strokeColor=#d6b656;fontSize=14;fontStyle=1" vertex="1" parent="1">
          <mxGeometry x="80" y="260" width="960" height="40" as="geometry" />
        </mxCell>
        
        <!-- Next.js Application -->
        <mxCell id="nextjs-app" value="Next.js 15.4.5 Application&#xa;• SSR/SSG Support&#xa;• API Routes&#xa;• TypeScript&#xa;• React Components&#xa;• Middleware" style="rounded=1;whiteSpace=wrap;html=1;fillColor=#d5e8d4;strokeColor=#82b366;" vertex="1" parent="1">
          <mxGeometry x="120" y="340" width="200" height="120" as="geometry" />
        </mxCell>
        
        <!-- Frontend Assets -->
        <mxCell id="frontend-assets" value="Frontend Assets&#xa;• Static Files&#xa;• CSS/Tailwind&#xa;• Images&#xa;• JavaScript Bundles&#xa;• Fonts" style="rounded=1;whiteSpace=wrap;html=1;fillColor=#f8cecc;strokeColor=#b85450;" vertex="1" parent="1">
          <mxGeometry x="360" y="340" width="180" height="120" as="geometry" />
        </mxCell>
        
        <!-- API Layer -->
        <mxCell id="api-layer-deploy" value="API Layer&#xa;• Authentication APIs&#xa;• Exam Management APIs&#xa;• File Upload/Export&#xa;• Middleware&#xa;• JWT Validation" style="rounded=1;whiteSpace=wrap;html=1;fillColor=#e1d5e7;strokeColor=#9673a6;" vertex="1" parent="1">
          <mxGeometry x="580" y="340" width="180" height="120" as="geometry" />
        </mxCell>
        
        <!-- Background Services -->
        <mxCell id="bg-services" value="Background Services&#xa;• File Processing&#xa;• Email Notifications&#xa;• Scheduled Tasks&#xa;• Cron Jobs" style="rounded=1;whiteSpace=wrap;html=1;fillColor=#ffe6cc;strokeColor=#d79b00;" vertex="1" parent="1">
          <mxGeometry x="800" y="340" width="180" height="120" as="geometry" />
        </mxCell>
        
        <!-- Database Layer -->
        <mxCell id="db-layer" value="Database Layer" style="rounded=1;whiteSpace=wrap;html=1;fillColor=#60a917;strokeColor=#2d7600;fontSize=14;fontStyle=1;fontColor=#ffffff;" vertex="1" parent="1">
          <mxGeometry x="80" y="520" width="960" height="40" as="geometry" />
        </mxCell>
        
        <!-- PostgreSQL -->
        <mxCell id="postgresql" value="PostgreSQL Database&#xa;• Primary Database&#xa;• User Management&#xa;• Exam Data&#xa;• Questions & Answers&#xa;• Results & Analytics&#xa;• ACID Compliance" style="rounded=1;whiteSpace=wrap;html=1;fillColor=#60a917;strokeColor=#2d7600;fontColor=#ffffff;" vertex="1" parent="1">
          <mxGeometry x="200" y="600" width="200" height="120" as="geometry" />
        </mxCell>
        
        <!-- Redis Cache -->
        <mxCell id="redis" value="Redis Cache (Optional)&#xa;• Session Storage&#xa;• API Response Cache&#xa;• Real-time Data&#xa;• Performance Optimization" style="rounded=1;whiteSpace=wrap;html=1;fillColor=#ffcc99;strokeColor=#d79b00;" vertex="1" parent="1">
          <mxGeometry x="460" y="600" width="200" height="120" as="geometry" />
        </mxCell>
        
        <!-- File Storage -->
        <mxCell id="file-storage" value="File Storage&#xa;• Uploaded Files&#xa;• Excel Templates&#xa;• Export Files&#xa;• Static Assets&#xa;• CDN Integration" style="rounded=1;whiteSpace=wrap;html=1;fillColor=#f8cecc;strokeColor=#b85450;" vertex="1" parent="1">
          <mxGeometry x="720" y="600" width="200" height="120" as="geometry" />
        </mxCell>
        
        <!-- Environment Options -->
        <mxCell id="env-options" value="Deployment Environment Options" style="rounded=1;whiteSpace=wrap;html=1;fillColor=#f0f0f0;strokeColor=#666666;fontSize=14;fontStyle=1" vertex="1" parent="1">
          <mxGeometry x="80" y="760" width="960" height="40" as="geometry" />
        </mxCell>
        
        <!-- Vercel -->
        <mxCell id="vercel" value="Option 1: Vercel&#xa;• Next.js Optimized&#xa;• Auto Scaling&#xa;• Global CDN&#xa;• Easy Deployment&#xa;• PostgreSQL via Neon/Supabase" style="rounded=1;whiteSpace=wrap;html=1;fillColor=#e1d5e7;strokeColor=#9673a6;" vertex="1" parent="1">
          <mxGeometry x="120" y="840" width="200" height="120" as="geometry" />
        </mxCell>
        
        <!-- AWS -->
        <mxCell id="aws" value="Option 2: AWS&#xa;• EC2 + RDS&#xa;• S3 for File Storage&#xa;• CloudFront CDN&#xa;• Load Balancer&#xa;• Auto Scaling Groups" style="rounded=1;whiteSpace=wrap;html=1;fillColor=#fff2cc;strokeColor=#d6b656;" vertex="1" parent="1">
          <mxGeometry x="360" y="840" width="200" height="120" as="geometry" />
        </mxCell>
        
        <!-- Docker -->
        <mxCell id="docker" value="Option 3: Docker&#xa;• Containerized App&#xa;• Docker Compose&#xa;• Kubernetes&#xa;• Any Cloud Provider&#xa;• Self-Hosted" style="rounded=1;whiteSpace=wrap;html=1;fillColor=#d5e8d4;strokeColor=#82b366;" vertex="1" parent="1">
          <mxGeometry x="600" y="840" width="200" height="120" as="geometry" />
        </mxCell>
        
        <!-- VPS -->
        <mxCell id="vps" value="Option 4: VPS&#xa;• Traditional Hosting&#xa;• PM2 Process Manager&#xa;• Nginx Reverse Proxy&#xa;• Custom Domain&#xa;• SSL Certificate" style="rounded=1;whiteSpace=wrap;html=1;fillColor=#ffe6cc;strokeColor=#d79b00;" vertex="1" parent="1">
          <mxGeometry x="840" y="840" width="200" height="120" as="geometry" />
        </mxCell>
        
        <!-- Connection Arrows -->
        <mxCell id="conn1" value="HTTPS" style="endArrow=classic;html=1;rounded=0;exitX=0.5;exitY=1;exitDx=0;exitDy=0;entryX=0.25;entryY=0;entryDx=0;entryDy=0;" edge="1" parent="1" source="web-browser" target="nextjs-app">
          <mxGeometry width="50" height="50" relative="1" as="geometry">
            <mxPoint x="400" y="400" as="sourcePoint" />
            <mxPoint x="450" y="350" as="targetPoint" />
          </mxGeometry>
        </mxCell>
        
        <mxCell id="conn2" value="HTTPS" style="endArrow=classic;html=1;rounded=0;exitX=0.5;exitY=1;exitDx=0;exitDy=0;entryX=0.75;entryY=0;entryDx=0;entryDy=0;" edge="1" parent="1" source="mobile-browser" target="nextjs-app">
          <mxGeometry width="50" height="50" relative="1" as="geometry">
            <mxPoint x="400" y="400" as="sourcePoint" />
            <mxPoint x="450" y="350" as="targetPoint" />
          </mxGeometry>
        </mxCell>
        
        <mxCell id="conn3" value="API Calls" style="endArrow=classic;html=1;rounded=0;exitX=1;exitY=0.5;exitDx=0;exitDy=0;entryX=0;entryY=0.5;entryDx=0;entryDy=0;" edge="1" parent="1" source="nextjs-app" target="api-layer-deploy">
          <mxGeometry width="50" height="50" relative="1" as="geometry">
            <mxPoint x="400" y="400" as="sourcePoint" />
            <mxPoint x="450" y="350" as="targetPoint" />
          </mxGeometry>
        </mxCell>
        
        <mxCell id="conn4" value="Static Assets" style="endArrow=classic;html=1;rounded=0;exitX=0.5;exitY=0;exitDx=0;exitDy=0;entryX=0.5;entryY=1;entryDx=0;entryDy=0;" edge="1" parent="1" source="frontend-assets" target="web-browser">
          <mxGeometry width="50" height="50" relative="1" as="geometry">
            <mxPoint x="400" y="400" as="sourcePoint" />
            <mxPoint x="450" y="350" as="targetPoint" />
          </mxGeometry>
        </mxCell>
        
        <mxCell id="conn5" value="Database Queries" style="endArrow=classic;html=1;rounded=0;exitX=0.5;exitY=1;exitDx=0;exitDy=0;entryX=0.5;entryY=0;entryDx=0;entryDy=0;" edge="1" parent="1" source="api-layer-deploy" target="postgresql">
          <mxGeometry width="50" height="50" relative="1" as="geometry">
            <mxPoint x="400" y="500" as="sourcePoint" />
            <mxPoint x="450" y="450" as="targetPoint" />
          </mxGeometry>
        </mxCell>
        
        <mxCell id="conn6" value="Cache" style="endArrow=classic;html=1;rounded=0;exitX=0.5;exitY=1;exitDx=0;exitDy=0;entryX=0.5;entryY=0;entryDx=0;entryDy=0;" edge="1" parent="1" source="api-layer-deploy" target="redis">
          <mxGeometry width="50" height="50" relative="1" as="geometry">
            <mxPoint x="400" y="500" as="sourcePoint" />
            <mxPoint x="450" y="450" as="targetPoint" />
          </mxGeometry>
        </mxCell>
        
        <mxCell id="conn7" value="File Operations" style="endArrow=classic;html=1;rounded=0;exitX=1;exitY=0.5;exitDx=0;exitDy=0;entryX=0.5;entryY=0;entryDx=0;entryDy=0;" edge="1" parent="1" source="bg-services" target="file-storage">
          <mxGeometry width="50" height="50" relative="1" as="geometry">
            <mxPoint x="400" y="500" as="sourcePoint" />
            <mxPoint x="450" y="450" as="targetPoint" />
          </mxGeometry>
        </mxCell>
        
        <!-- Title -->
        <mxCell id="title" value="CBT System Deployment Architecture" style="text;html=1;strokeColor=none;fillColor=none;align=center;verticalAlign=middle;whiteSpace=wrap;rounded=0;fontSize=18;fontStyle=1;" vertex="1" parent="1">
          <mxGeometry x="420" y="980" width="350" height="30" as="geometry" />
        </mxCell>
        
        <!-- Security Layer -->
        <mxCell id="security" value="Security Layer: SSL/TLS, CORS, JWT Authentication, Input Validation, CSRF Protection" style="rounded=1;whiteSpace=wrap;html=1;fillColor=#ffcccc;strokeColor=#ff0000;" vertex="1" parent="1">
          <mxGeometry x="280" y="1020" width="600" height="40" as="geometry" />
        </mxCell>
        
      </root>
    </mxGraphModel>
  </diagram>
</mxfile>
